<svg width="78" height="78" viewBox="0 0 78 78" fill="none" xmlns="http://www.w3.org/2000/svg">
<mask id="mask0_1_1974" style="mask-type:luminance" maskUnits="userSpaceOnUse" x="1" y="11" width="64" height="39">
<path d="M1.45605 11.5579H64.2721V49.5041H1.45605V11.5579Z" fill="white"/>
</mask>
<g mask="url(#mask0_1_1974)">
<path fill-rule="evenodd" clip-rule="evenodd" d="M19.4894 44.9621L27.1529 49.3878C30.3363 50.0077 33.6894 47.7531 36.0278 45.7795C41.409 40.2545 47.8887 35.6882 55.5238 34.2501L30.4208 19.7332C32.7876 18.7184 35.4079 18.1829 38.1403 18.1829C47.7481 18.1829 55.7773 25.0047 57.6371 34.0527C59.8349 33.7431 61.9474 33.6862 64.1736 33.9682C62.2009 21.3679 51.2979 11.6992 38.1403 11.6992C32.8721 11.6992 27.9703 13.2494 23.8281 15.9274L17.0381 12.0096C15.3196 11.0224 13.1218 11.6147 12.1363 13.3339L2.07832 30.7547C1.09194 32.474 1.68344 34.6734 3.40188 35.6598L6.64213 37.5481L6.61369 37.492L19.4333 44.9906V44.9621H19.4894ZM21.1233 27.7672C22.1097 29.8813 29.1817 28.6691 29.1817 33.6586C29.1817 36.3082 27.2658 37.7739 24.73 38.0274V40.7054H22.3071V37.9145C20.6448 37.6049 19.1798 36.8997 17.8554 35.7159L19.4049 33.8837C20.1093 34.5036 20.8422 34.9554 21.5743 35.2934C23.2927 36.0547 26.6459 36.1392 26.6459 33.9121C26.6459 30.5857 18.4469 32.9257 18.4469 27.2594C18.4469 24.9478 20.1093 23.426 22.3348 23.0596V20.3247H24.7584V23.0596C26.251 23.2562 27.5469 23.8769 28.7308 24.8072L27.3503 26.7524C26.6735 26.273 26.0259 25.8781 25.3499 25.6246C23.5186 24.8917 20.9828 25.1452 20.9828 27.0059C20.9828 27.2878 21.0388 27.5413 21.1233 27.7672Z" fill="#38B6FF"/>
</g>
<mask id="mask1_1_1974" style="mask-type:luminance" maskUnits="userSpaceOnUse" x="12" y="37" width="65" height="30">
<path d="M12.688 37.4399H76.544V66.4698H12.688V37.4399Z" fill="white"/>
</mask>
<g mask="url(#mask1_1_1974)">
<path fill-rule="evenodd" clip-rule="evenodd" d="M58.0597 37.6611C51.3541 38.3939 44.8744 42.0307 38.5913 48.5421C33.2386 53.0522 28.4773 54.3206 24.2792 52.3754C23.3497 51.9529 22.4762 51.3606 21.6028 50.6001L12.8684 45.4692C13.3762 47.2453 14.0798 48.9646 14.9533 50.5432C19.574 58.2953 28.8714 62.5236 38.0283 60.3249C46.8179 57.9004 53.946 53.7291 59.4685 47.8376C54.6504 56.689 44.9589 61.8191 30.3932 63.2849C30.4777 63.2849 38.4508 68.6124 48.9873 65.5119C55.2419 63.6797 60.4541 59.367 63.4124 53.5601C66.3992 48.5421 70.963 44.6518 76.3726 42.4816C70.5689 38.8733 64.4272 36.9282 58.0597 37.6326V37.6611Z" fill="#89C400"/>
</g>
</svg>
